<svg aria-hidden="true" style="position:absolute;width:0;height:0;overflow:hidden" xmlns="http://www.w3.org/2000/svg"><defs><symbol id="icon-instagram" viewBox="0 0 32 32"><path d="M31.968 9.408c-.074-1.701-.349-2.869-.744-3.882a7.84 7.84 0 0 0-1.847-2.837l-.001-.001A7.906 7.906 0 0 0 26.598.861l-.054-.018C25.523.449 24.362.176 22.661.101 20.949.019 20.405 0 16.059 0c-4.344 0-4.888.019-6.595.094-1.701.074-2.869.349-3.88.742a7.847 7.847 0 0 0-2.839 1.85l-.001.001A7.9 7.9 0 0 0 .919 5.465l-.018.054C.506 6.538.232 7.7.157 9.401c-.082 1.712-.101 2.256-.101 6.602 0 4.344.019 4.888.094 6.595.075 1.701.35 2.869.744 3.882a7.915 7.915 0 0 0 1.849 2.837l.001.001c.8.813 1.77 1.443 2.832 1.843 1.019.395 2.182.67 3.882.744 1.707.075 2.251.094 6.595.094 4.346 0 4.89-.019 6.595-.094 1.701-.074 2.869-.349 3.882-.742a8.237 8.237 0 0 0 4.664-4.628l.019-.055c.394-1.019.669-2.182.744-3.882.075-1.707.093-2.251.093-6.595s-.006-4.888-.08-6.595zm-2.88 13.066c-.07 1.563-.333 2.406-.552 2.97a5.336 5.336 0 0 1-3.001 3.024l-.036.013c-.563.219-1.413.482-2.97.55-1.688.075-2.194.094-6.464.094-4.269 0-4.782-.019-6.464-.094-1.563-.069-2.406-.331-2.97-.55a4.953 4.953 0 0 1-1.836-1.192l-.001-.001a4.978 4.978 0 0 1-1.184-1.803l-.011-.034c-.218-.563-.48-1.413-.549-2.97-.075-1.688-.094-2.195-.094-6.464 0-4.27.019-4.784.094-6.464.069-1.563.331-2.406.549-2.97a4.897 4.897 0 0 1 1.198-1.837l.002-.002a4.972 4.972 0 0 1 1.806-1.182l.034-.011c.56-.219 1.411-.48 2.968-.55 1.688-.074 2.194-.093 6.464-.093 4.275 0 4.782.019 6.464.093 1.562.069 2.406.331 2.97.55a4.91 4.91 0 0 1 1.837 1.194c.531.52.938 1.144 1.195 1.84.218.56.48 1.411.549 2.968.075 1.688.094 2.194.094 6.464 0 4.269-.019 4.768-.094 6.458z"/><path d="M16.059 7.782a8.223 8.223 0 0 0-8.219 8.221v.002a8.222 8.222 0 1 0 16.444 0 8.222 8.222 0 0 0-8.222-8.222h-.002zm0 13.552a5.333 5.333 0 0 1 .001-10.666h.001a5.334 5.334 0 1 1 0 10.668zM26.525 7.458a1.92 1.92 0 0 1-3.84 0 1.92 1.92 0 0 1 3.84 0z"/></symbol><symbol id="icon-linkedin" viewBox="0 0 32 32"><path d="M31.992 32v-.001H32V20.263c0-5.741-1.236-10.164-7.948-10.164-3.227 0-5.392 1.771-6.276 3.449h-.093v-2.913h-6.364v21.364h6.627V21.42c0-2.785.528-5.479 3.977-5.479 3.399 0 3.449 3.179 3.449 5.657v10.401h6.62zM.528 10.636h6.635V32H.528V10.636zM3.843 0C1.722 0 0 1.721 0 3.843s1.721 3.879 3.843 3.879c2.121 0 3.843-1.757 3.843-3.879A3.846 3.846 0 0 0 3.843 0z"/></symbol><symbol id="icon-facebook" viewBox="0 0 32 32"><path d="M21.329 5.313h2.921V.225C23.746.156 22.013 0 19.994 0c-4.212 0-7.097 2.649-7.097 7.519V12H8.249v5.688h4.648V32h5.699V17.689h4.46l.708-5.688h-5.169V8.082c.001-1.644.444-2.769 2.735-2.769z"/></symbol><symbol id="icon-twitter" viewBox="0 0 32 32"><path d="M32 6.078c-1.19.522-2.458.868-3.78 1.036a6.523 6.523 0 0 0 2.886-3.626 13.11 13.11 0 0 1-4.16 1.588A6.574 6.574 0 0 0 22.154 3c-3.632 0-6.556 2.948-6.556 6.562 0 .52.044 1.02.152 1.496-5.454-.266-10.28-2.88-13.522-6.862a6.605 6.605 0 0 0-.898 3.316 6.57 6.57 0 0 0 2.914 5.452 6.479 6.479 0 0 1-2.964-.808v.072c0 3.188 2.274 5.836 5.256 6.446a6.548 6.548 0 0 1-1.72.216 5.8 5.8 0 0 1-1.242-.112c.85 2.598 3.262 4.508 6.13 4.57a13.182 13.182 0 0 1-8.134 2.798c-.538 0-1.054-.024-1.57-.09A18.469 18.469 0 0 0 10.064 29c12.072 0 18.672-10 18.672-18.668 0-.29-.01-.57-.024-.848A13.087 13.087 0 0 0 32 6.078z"/></symbol><symbol id="icon-logo" viewBox="0 0 38 32">
<path d="M21.774 9.64l-0.717-0.571c-0.092-0.079-0.213-0.127-0.345-0.127-0.171 0-0.323 0.081-0.42 0.206l-0.001 0.001-9.915 11.897 0.153 0.177 2.455-2.366c-0.084-0.036-0.15-0.099-0.19-0.177l-0.001-0.002c-0.028-0.054-0.045-0.119-0.045-0.187 0-0.028 0.003-0.055 0.008-0.081l-0 0.003c0.018-0.090 0.065-0.171 0.134-0.229 0.063-0.054 0.146-0.087 0.237-0.087 0.002 0 0.004 0 0.006 0h-0c0.080 0 0.157 0.027 0.221 0.076s0.11 0.117 0.134 0.196l0.001 0.003 3.238-3.137c0.047-0.040 0.108-0.064 0.175-0.064s0.128 0.024 0.176 0.064l-0-0 0.164 0.126c0.044 0.033 0.099 0.053 0.159 0.053 0.083 0 0.157-0.038 0.206-0.099l0-0.001 4.233-4.96c0.078-0.087 0.125-0.202 0.125-0.328 0-0.087-0.022-0.168-0.062-0.239l0.001 0.003c-0.033-0.059-0.077-0.109-0.129-0.148l-0.001-0.001z"></path>
<path d="M26.433 12.989c-2.041 1.536-4.433 2.741-7.022 3.477l-0.153 0.037c-2.298 0.638-4.968 1.071-7.716 1.208l-0.088 0.003c0.053 0.406 0.149 0.805 0.285 1.189 1.487 1.406 12.687-0.994 14.875-3.771 0.465-0.577-0.181-2.143-0.181-2.143zM13.133 18.857c-0.077-0-0.149-0.025-0.207-0.066l0.001 0.001c-0.061-0.043-0.108-0.103-0.136-0.172l-0.001-0.003c-0.018-0.044-0.028-0.094-0.028-0.147 0-0.107 0.041-0.204 0.108-0.276l-0 0c0.066-0.070 0.159-0.114 0.262-0.114 0.052 0 0.101 0.011 0.146 0.031l-0.002-0.001c0.067 0.029 0.126 0.078 0.166 0.143 0.041 0.063 0.063 0.138 0.063 0.215 0 0.001 0 0.003 0 0.004 0 0.105-0.041 0.201-0.108 0.272l0-0c-0.067 0.069-0.16 0.112-0.263 0.112-0 0-0.001 0-0.001 0h0zM2.551 12.166l0.088-0.394 1.422 0.337c0.117 0.226 0.19 0.475 0.213 0.731 0.027 0.271 0.011 0.546-0.049 0.811-0.074 0.384-0.24 0.72-0.473 0.998l0.003-0.003c-0.219 0.26-0.504 0.457-0.829 0.568l-0.013 0.004c-0.176 0.059-0.378 0.093-0.588 0.093-0.158 0-0.312-0.019-0.459-0.055l0.013 0.003c-0.359-0.084-0.669-0.26-0.913-0.503l0 0c-0.246-0.239-0.428-0.543-0.517-0.884l-0.003-0.013c-0.047-0.171-0.074-0.368-0.074-0.571s0.027-0.4 0.077-0.587l-0.004 0.016c0.059-0.28 0.165-0.547 0.312-0.789 0.14-0.22 0.327-0.402 0.547-0.531l0.197 0.314c-0.189 0.121-0.35 0.282-0.474 0.473-0.119 0.181-0.206 0.395-0.246 0.625l-0.001 0.010c-0.030 0.125-0.047 0.269-0.047 0.416 0 0.171 0.023 0.337 0.066 0.494l-0.003-0.013c0.074 0.278 0.219 0.529 0.421 0.726 0.207 0.21 0.467 0.354 0.749 0.417 0.274 0.080 0.563 0.080 0.837 0 0.262-0.090 0.497-0.25 0.683-0.463 0.191-0.23 0.323-0.507 0.383-0.806 0.034-0.132 0.054-0.284 0.054-0.441 0-0.234-0.044-0.457-0.124-0.663l0.004 0.012-1.253-0.331zM5.647 8.571l-1.274 1.777 0.547 1.023-0.251 0.354-2.023-3.857 0.235-0.337 4.118 0.926-0.257 0.354-1.094-0.24zM5.286 8.48l-2.187-0.514 1.094 2.051 1.094-1.537zM5.286 4.886l0.328-0.257 2.083 2.914 1.718-1.343 0.207 0.291-2.040 1.594-2.297-3.2zM8.731 2.503l0.366-0.171 1.444 3.303 1.953-0.926 0.142 0.331-2.318 1.103-1.586-3.64zM15.939 3.817l0.082 0.36-2.635 0.646-0.875-3.897 2.56-0.623 0.076 0.354-2.187 0.531 0.312 1.383 1.925-0.474 0.082 0.354-1.93 0.469 0.328 1.446 2.264-0.549zM19.696 3.96l-0.914-1.257c-0.102 0.006-0.204 0.006-0.306 0l-1.029 0.034 0.038 1.269h-0.405l-0.126-4 1.455-0.006c0.411-0.040 0.823 0.076 1.159 0.326 0.142 0.119 0.256 0.271 0.334 0.443s0.117 0.36 0.114 0.551c0.001 0.024 0.002 0.051 0.002 0.079 0 0.267-0.076 0.516-0.208 0.726l0.003-0.006c-0.154 0.223-0.371 0.392-0.625 0.483l-0.009 0.003 0.957 1.337-0.443 0.017zM19.313 2.080c0.098-0.094 0.174-0.21 0.223-0.341s0.067-0.269 0.056-0.408c0-0.006 0-0.013 0-0.020 0-0.139-0.030-0.271-0.083-0.39l0.002 0.006c-0.058-0.129-0.14-0.239-0.241-0.326l-0.001-0.001c-0.207-0.149-0.467-0.239-0.747-0.239-0.039 0-0.078 0.002-0.116 0.005l0.005-0-1.040 0.040 0.066 2 1.017-0.034c0.014 0.001 0.030 0.001 0.046 0.001 0.31 0 0.594-0.11 0.815-0.294l-0.002 0.002zM22.589 2.897l-0.197 1.366-0.399-0.063 0.202-1.343-1.131-2.857 0.426 0.069 0.967 2.434 1.64-2.017 0.383 0.086-1.891 2.326zM27.997 2.657l0.476 0.646-0.208 0.171-0.475-0.663-0.301 0.749-0.23-0.103 0.306-0.749-0.787 0.109v-0.274l0.777-0.091-0.482-0.646 0.213-0.171 0.421 0.651 0.295-0.754 0.235 0.103-0.279 0.766 0.788-0.114v0.28l-0.75 0.091zM29.824 7.263c-0.124-0.198-0.208-0.432-0.234-0.684l-0.001-0.007 0.322-0.149c0.025 0.226 0.095 0.445 0.208 0.64 0.122 0.219 0.281 0.413 0.47 0.571 0.194 0.195 0.443 0.321 0.711 0.36 0.097 0.009 0.194-0.006 0.283-0.045s0.169-0.1 0.231-0.178c0.079-0.093 0.127-0.214 0.127-0.347 0-0.015-0.001-0.029-0.002-0.044l0 0.002c-0.020-0.147-0.066-0.281-0.134-0.4l0.003 0.005c-0.103-0.175-0.214-0.345-0.334-0.509-0.134-0.181-0.264-0.386-0.38-0.601l-0.014-0.028c-0.086-0.155-0.138-0.34-0.142-0.536l-0-0.001c0-0.211 0.076-0.416 0.214-0.571 0.119-0.151 0.276-0.263 0.454-0.326 0.091-0.028 0.195-0.045 0.303-0.045s0.213 0.016 0.311 0.047l-0.007-0.002c0.255 0.087 0.491 0.227 0.695 0.411 0.168 0.146 0.317 0.315 0.443 0.503 0.116 0.174 0.203 0.367 0.257 0.571l-0.312 0.171c-0.059-0.204-0.141-0.383-0.245-0.545l0.005 0.008c-0.107-0.15-0.227-0.279-0.363-0.392l-0.003-0.003c-0.183-0.187-0.427-0.313-0.7-0.348l-0.006-0.001c-0.015-0.001-0.032-0.002-0.050-0.002-0.086 0-0.167 0.019-0.239 0.053l0.003-0.001c-0.092 0.043-0.169 0.106-0.227 0.184l-0.001 0.002c-0.080 0.090-0.128 0.209-0.128 0.339 0 0.017 0.001 0.035 0.003 0.052l-0-0.002c0.013 0.144 0.058 0.283 0.131 0.406 0.077 0.131 0.186 0.303 0.334 0.509 0.146 0.194 0.278 0.401 0.394 0.617 0.090 0.163 0.141 0.349 0.147 0.537 0 0.211-0.076 0.416-0.214 0.571-0.12 0.153-0.279 0.266-0.459 0.326-0.198 0.063-0.409 0.063-0.607 0-0.271-0.094-0.504-0.234-0.702-0.413l0.002 0.002c-0.218-0.2-0.401-0.434-0.54-0.695l-0.007-0.014zM35.326 8.097l-0.771-1.143 0.285-0.211 1.777 2.651-0.284 0.211-0.771-1.143-2.854 2.086-0.23-0.349 2.849-2.103zM34.101 12.794c0.097-0.345 0.287-0.655 0.547-0.891 0.243-0.229 0.546-0.395 0.884-0.472l0.013-0.002c0.133-0.033 0.286-0.052 0.443-0.052 0.209 0 0.41 0.034 0.598 0.096l-0.013-0.004c0.322 0.111 0.61 0.309 0.837 0.571 0.229 0.275 0.392 0.611 0.463 0.981l0.002 0.014c0.043 0.166 0.068 0.356 0.068 0.551s-0.025 0.386-0.071 0.567l0.003-0.016c-0.208 0.69-0.761 1.215-1.453 1.38l-0.014 0.003c-0.13 0.031-0.28 0.049-0.433 0.049-0.214 0-0.42-0.035-0.613-0.099l0.014 0.004c-0.337-0.113-0.62-0.311-0.834-0.568l-0.002-0.003c-0.228-0.273-0.391-0.607-0.463-0.975l-0.002-0.014c-0.036-0.152-0.056-0.326-0.056-0.506 0-0.219 0.031-0.43 0.088-0.631l-0.004 0.016zM34.817 14.611c0.183 0.217 0.419 0.377 0.683 0.463 0.273 0.083 0.56 0.093 0.838 0.029 0.292-0.069 0.544-0.207 0.75-0.395l-0.001 0.001c0.202-0.194 0.35-0.44 0.431-0.714 0.040-0.147 0.063-0.315 0.063-0.489 0-0.141-0.015-0.278-0.044-0.41l0.002 0.013c-0.065-0.306-0.197-0.573-0.38-0.798l0.003 0.003c-0.184-0.212-0.423-0.372-0.694-0.46l-0.011-0.003c-0.126-0.036-0.271-0.057-0.421-0.057s-0.295 0.021-0.432 0.060l0.011-0.003c-0.292 0.061-0.545 0.2-0.744 0.395l0-0c-0.2 0.192-0.35 0.436-0.429 0.709l-0.003 0.011c-0.035 0.133-0.056 0.286-0.056 0.443s0.020 0.31 0.058 0.455l-0.003-0.012c0.060 0.283 0.19 0.546 0.377 0.76zM33.685 19.429l1.416-0.571c0-0.103 0.033-0.206 0.061-0.314l0.268-1.034-1.16-0.314 0.104-0.406 3.697 1.034-0.371 1.446c-0.086 0.431-0.313 0.798-0.631 1.060l-0.003 0.003c-0.15 0.109-0.322 0.179-0.502 0.207s-0.364 0.011-0.537-0.047c-0.275-0.065-0.506-0.219-0.669-0.429l-0.002-0.003c-0.164-0.212-0.264-0.481-0.265-0.774v-0l-1.509 0.571 0.104-0.429zM35.517 19.589c0.064 0.121 0.151 0.228 0.255 0.314s0.225 0.147 0.353 0.183c0.076 0.022 0.164 0.035 0.255 0.035 0.189 0 0.366-0.056 0.513-0.152l-0.004 0.002c0.241-0.203 0.406-0.488 0.465-0.806l0.263-1.029-1.854-0.52-0.262 1.029c-0.045 0.134-0.072 0.288-0.072 0.448 0 0.178 0.032 0.348 0.091 0.505l-0.003-0.010zM31.722 23.109l-0.279-0.223 1.64-2.257 3.052 2.417-1.586 2.189-0.279-0.223 1.339-1.846-1.094-0.863-1.198 1.651-0.273-0.217 1.225-1.651-1.132-0.897-1.417 1.92zM30.442 27.663l-0.782 0.046v-0.274l0.782-0.006-0.421-0.68 0.214-0.143 0.415 0.686 0.339-0.766 0.235 0.131-0.371 0.72 0.782-0.046v0.28h-0.793l0.421 0.68-0.213 0.143-0.416-0.686-0.361 0.743-0.23-0.137 0.399-0.691zM23.333 27.206l0.662 0.383c0.111-0.223 0.266-0.418 0.454-0.574s0.406-0.268 0.64-0.329c0.217-0.071 0.446-0.096 0.672-0.074 0.197 0.015 0.386 0.087 0.547 0.206 0.146 0.114 0.253 0.274 0.306 0.457 0.066 0.226 0.054 0.469-0.033 0.686-0.137 0.295-0.322 0.564-0.547 0.794 0.18 0.101 0.347 0.226 0.497 0.371 0.103 0.111 0.181 0.246 0.225 0.394 0.014 0.056 0.022 0.12 0.022 0.185 0 0.183-0.062 0.351-0.166 0.485l0.001-0.002c-0.142 0.214-0.355 0.371-0.605 0.438l-0.007 0.002c-0.1 0.041-0.217 0.065-0.339 0.065s-0.239-0.024-0.345-0.067l0.006 0.002c-0.1-0.046-0.184-0.112-0.25-0.193l-0.001-0.001c-0.066-0.081-0.116-0.179-0.142-0.286l-0.001-0.005c-0.057-0.189-0.043-0.393 0.039-0.571 0.132-0.27 0.294-0.502 0.487-0.704l-0.001 0.001-1.318-0.766c-0.050 0.269-0.061 0.545-0.033 0.817h-0.333c-0.004-0.057-0.006-0.124-0.006-0.191 0-0.286 0.042-0.563 0.121-0.823l-0.005 0.020-0.689-0.4 0.142-0.32zM24.284 27.777l1.449 0.84c0.19-0.19 0.347-0.411 0.465-0.657 0.060-0.166 0.060-0.349 0-0.514-0.026-0.103-0.074-0.192-0.14-0.266l0.001 0.001c-0.065-0.073-0.147-0.129-0.239-0.162l-0.004-0.001c-0.104-0.038-0.225-0.060-0.35-0.060s-0.246 0.022-0.357 0.062l0.007-0.002c-0.186 0.051-0.358 0.144-0.506 0.273-0.146 0.128-0.263 0.285-0.344 0.462l-0.003 0.009 0.022 0.017zM26.341 30.063c0.043-0.075 0.069-0.165 0.069-0.261 0-0.058-0.009-0.113-0.026-0.166l0.001 0.004c-0.035-0.116-0.095-0.216-0.175-0.297l0 0c-0.139-0.123-0.291-0.229-0.454-0.314-0.166 0.171-0.311 0.363-0.432 0.571-0.041 0.078-0.064 0.171-0.064 0.269 0 0.055 0.007 0.108 0.021 0.158l-0.001-0.004c0.017 0.065 0.048 0.126 0.089 0.178 0.041 0.051 0.091 0.093 0.149 0.123l0.003 0.001c0.139 0.055 0.293 0.055 0.432 0 0.154-0.045 0.281-0.14 0.365-0.266l0.002-0.002 0.022 0.006zM16.666 31.611l0.077-4h0.389l-0.061 3.2 1.553-2.663h0.191l1.455 2.709 0.054-3.183h0.389l-0.071 4h-0.334l-1.608-2.989-1.701 2.931-0.334-0.006zM14.763 27.429c0.25 0.249 0.429 0.566 0.517 0.915s0.081 0.717-0.019 1.063c-0.094 0.365-0.275 0.68-0.52 0.932l0-0c-0.233 0.241-0.532 0.417-0.868 0.5l-0.012 0.003c-0.14 0.035-0.301 0.054-0.467 0.054-0.212 0-0.416-0.032-0.608-0.093l0.014 0.004c-0.361-0.095-0.671-0.276-0.919-0.52l0 0c-0.241-0.242-0.419-0.548-0.506-0.889l-0.003-0.013c-0.038-0.152-0.059-0.327-0.059-0.506 0-0.205 0.028-0.403 0.080-0.591l-0.004 0.015c0.1-0.364 0.284-0.678 0.53-0.93l-0 0c0.23-0.241 0.522-0.42 0.851-0.511l0.013-0.003c0.14-0.034 0.3-0.054 0.464-0.054 0.211 0 0.414 0.032 0.605 0.092l-0.014-0.004c0.364 0.099 0.676 0.286 0.924 0.537l0 0zM12.898 27.229c-0.28 0.070-0.52 0.215-0.705 0.411l-0.001 0.001c-0.197 0.206-0.342 0.463-0.413 0.748l-0.002 0.012c-0.076 0.286-0.076 0.589 0 0.874 0.065 0.278 0.203 0.531 0.399 0.731 0.206 0.21 0.46 0.362 0.738 0.44 0.278 0.074 0.569 0.074 0.847 0 0.267-0.069 0.513-0.211 0.711-0.411 0.2-0.21 0.344-0.473 0.415-0.76 0.036-0.132 0.057-0.284 0.057-0.44s-0.021-0.308-0.060-0.452l0.003 0.012c-0.073-0.286-0.214-0.533-0.405-0.732l0.001 0.001c-0.199-0.203-0.45-0.355-0.732-0.432l-0.011-0.003c-0.126-0.038-0.271-0.060-0.421-0.060s-0.295 0.022-0.432 0.062l0.011-0.003zM8.758 24.571l0.147 1.571c0.094 0.042 0.185 0.090 0.274 0.143l0.891 0.537 0.602-1.109 0.355 0.211-1.914 3.446-1.247-0.749c-0.372-0.201-0.659-0.518-0.816-0.902l-0.004-0.012c-0.042-0.123-0.066-0.265-0.066-0.412 0-0.249 0.069-0.481 0.19-0.68l-0.003 0.006c0.127-0.25 0.329-0.451 0.574-0.571 0.249-0.108 0.526-0.13 0.787-0.063l-0.158-1.68 0.389 0.263zM8.135 26.377c-0.136 0.036-0.255 0.097-0.357 0.179l0.002-0.002c-0.106 0.084-0.194 0.189-0.26 0.309-0.082 0.148-0.131 0.325-0.131 0.513 0 0.102 0.014 0.201 0.041 0.295l-0.002-0.008c0.129 0.296 0.351 0.536 0.629 0.68l0.88 0.531 0.958-1.714-0.881-0.531c-0.221-0.176-0.504-0.282-0.812-0.282-0.024 0-0.048 0.001-0.071 0.002l0.003-0v0.029zM5.521 21.891l0.246-0.257 1.887 2.029-2.734 2.789-1.821-1.966 0.251-0.257 1.548 1.663 0.935-0.989-1.356-1.474 0.262-0.263 1.383 1.486 1.017-1.034-1.618-1.726zM1.457 19.646l0.131-0.789 0.257 0.040-0.147 0.811 0.727-0.28 0.087 0.251-0.738 0.263 0.607 0.537-0.175 0.206-0.585-0.571-0.137 0.811-0.262-0.051 0.153-0.811-0.733 0.274-0.082-0.223 0.733-0.269-0.608-0.531 0.181-0.206 0.591 0.537z"></path>
</symbol></defs></svg>